<svg width="24" height="24" viewBox="0 0 24 24" fill="none" xmlns="http://www.w3.org/2000/svg">
<path d="M12 21C16.9706 21 21 16.9706 21 12C21 7.02944 16.9706 3 12 3C7.02944 3 3 7.02944 3 12C3 16.9706 7.02944 21 12 21Z" fill="#E8EFF5"/>
<path opacity="0.4" fill-rule="evenodd" clip-rule="evenodd" d="M15.4247 9.63897C15.7184 9.34524 15.7184 8.86901 15.4247 8.57528C15.131 8.28155 14.6547 8.28155 14.361 8.57528L12 10.9363L9.63897 8.57528C9.34524 8.28155 8.86901 8.28155 8.57528 8.57528C8.28155 8.86901 8.28155 9.34524 8.57528 9.63897L10.9363 12L8.57528 14.361C8.28155 14.6547 8.28155 15.131 8.57528 15.4247C8.86901 15.7184 9.34524 15.7184 9.63897 15.4247L12 13.0637L14.361 15.4247C14.6547 15.7184 15.131 15.7184 15.4247 15.4247C15.7184 15.131 15.7184 14.6547 15.4247 14.361L13.0637 12L15.4247 9.63897Z" fill="#022B54"/>
</svg>
