<svg width="20" height="20" viewBox="0 0 20 20" fill="none" xmlns="http://www.w3.org/2000/svg">
<path fill-rule="evenodd" clip-rule="evenodd" d="M15.6185 5.61969C15.9602 5.27799 15.9602 4.72397 15.6185 4.38226C15.2768 4.04055 14.7227 4.04055 14.381 4.38226L9.99976 8.76354L5.61847 4.38226C5.27677 4.04055 4.72275 4.04055 4.38104 4.38226C4.03933 4.72397 4.03933 5.27799 4.38104 5.61969L8.76232 10.001L4.38104 14.3823C4.03933 14.724 4.03933 15.278 4.38104 15.6197C4.72275 15.9614 5.27677 15.9614 5.61847 15.6197L9.99976 11.2384L14.381 15.6197C14.7227 15.9614 15.2768 15.9614 15.6185 15.6197C15.9602 15.278 15.9602 14.724 15.6185 14.3823L11.2372 10.001L15.6185 5.61969Z" fill="#022B54"/>
</svg>
