<svg width="24" height="24" viewBox="0 0 24 24" fill="none" xmlns="http://www.w3.org/2000/svg">
<g filter="url(#filter0_d)">
<path fill-rule="evenodd" clip-rule="evenodd" d="M14.171 18H2.992C2.456 18 2 18.448 2 19C2 19.556 2.444 20 2.992 20H14.171C14.583 21.165 15.694 22 17 22C18.306 22 19.417 21.165 19.829 20H21.008C21.544 20 22 19.552 22 19C22 18.444 21.556 18 21.008 18H19.829C19.417 16.835 18.306 16 17 16C15.694 16 14.583 16.835 14.171 18ZM10.83 13H21.009C21.545 13 22.001 12.552 22.001 12C22.001 11.444 21.557 11 21.009 11H10.83C10.418 9.835 9.307 9 8.001 9C6.695 9 5.584 9.835 5.172 11H2.993C2.457 11 2.001 11.448 2.001 12C2.001 12.556 2.445 13 2.993 13H5.172C5.584 14.165 6.695 15 8.001 15C9.307 15 10.418 14.165 10.83 13ZM14.171 4H2.992C2.456 4 2 4.448 2 5C2 5.556 2.444 6 2.992 6H14.171C14.583 7.165 15.694 8 17 8C18.306 8 19.417 7.165 19.829 6H21.008C21.544 6 22 5.552 22 5C22 4.444 21.556 4 21.008 4H19.829C19.417 2.835 18.306 2 17 2C15.694 2 14.583 2.835 14.171 4ZM17 6C17.552 6 18 5.552 18 5C18 4.448 17.552 4 17 4C16.448 4 16 4.448 16 5C16 5.552 16.448 6 17 6ZM8 11C7.448 11 7 11.448 7 12C7 12.552 7.448 13 8 13C8.552 13 9 12.552 9 12C9 11.448 8.552 11 8 11ZM17 20C17.552 20 18 19.552 18 19C18 18.448 17.552 18 17 18C16.448 18 16 18.448 16 19C16 19.552 16.448 20 17 20Z" fill="#022B54"/>
</g>
<defs>
<filter id="filter0_d" x="-18" y="-17" width="60.001" height="60" filterUnits="userSpaceOnUse" color-interpolation-filters="sRGB">
<feFlood flood-opacity="0" result="BackgroundImageFix"/>
<feColorMatrix in="SourceAlpha" type="matrix" values="0 0 0 0 0 0 0 0 0 0 0 0 0 0 0 0 0 0 127 0" result="hardAlpha"/>
<feOffset dy="1"/>
<feGaussianBlur stdDeviation="10"/>
<feColorMatrix type="matrix" values="0 0 0 0 0 0 0 0 0 0 0 0 0 0 0 0 0 0 0.1 0"/>
<feBlend mode="normal" in2="BackgroundImageFix" result="effect1_dropShadow"/>
<feBlend mode="normal" in="SourceGraphic" in2="effect1_dropShadow" result="shape"/>
</filter>
</defs>
</svg>
