<svg width="90" height="84" viewBox="0 0 90 84" fill="none" xmlns="http://www.w3.org/2000/svg">
<path opacity="0.1" d="M32.4253 51.3665C33.1629 51.1779 33.4618 51.1241 33.7487 51.0286C41.1804 48.5064 48.6483 46.1067 56.2246 44.0718C57.7673 43.658 58.0687 43.1535 57.3696 41.6476C54.248 34.8941 51.2372 28.0891 48.1637 21.3136C47.9492 20.8385 47.766 20.2924 47.2622 20.2924C46.756 20.2924 46.5993 20.8287 46.3944 21.267C44.2273 25.9147 42.0771 30.5697 39.9197 35.2197C37.4778 40.482 35.0335 45.7443 32.4253 51.3665ZM78.5944 83.9612C78.0858 83.9612 77.5338 83.944 76.8854 83.5792C76.0393 83.1041 75.6801 82.2422 75.5113 81.8651C70.6011 70.8949 65.5871 59.9761 60.7154 48.9888C59.9826 47.3359 59.3029 46.8829 57.5504 47.4363C52.3653 49.0745 47.0115 50.147 41.9325 52.1501C37.2584 53.9915 36.88 55.517 40.9538 58.4432C42.6171 59.6382 44.2538 60.8871 45.6712 62.3906C48.629 65.5273 48.4458 68.5833 44.9794 71.1398C37.2729 76.8183 28.5178 79.9184 19.2252 81.581C14.4595 82.4356 9.66256 82.7368 4.84629 81.9679C2.97812 81.6716 1.07138 81.2603 0.273495 79.2646C-0.517163 77.2909 0.555528 75.687 1.59688 74.0562C3.71816 70.7333 7.20621 71.0222 10.352 70.5349C11.4102 70.3709 11.6464 71.3846 11.0101 72.2343C10.3785 73.0816 9.55167 73.7795 8.93216 74.6316C7.65217 76.3873 7.97759 77.286 10.1037 77.7856C12.2346 78.2851 14.4258 78.1969 16.5664 77.9227C22.33 77.1856 27.8236 75.594 32.5892 72.036C35.2312 70.0648 35.2264 68.7645 32.5748 66.8741C30.3016 65.2506 27.9489 63.7373 25.6758 62.1114C23.5039 60.5565 23.0531 58.7444 24.0969 56.3937C29.9135 43.2931 35.7278 30.1926 41.5372 17.0871C43.7187 12.1676 45.9026 7.24575 48.0504 2.30917C48.6097 1.03094 49.2413 -0.00730752 50.8394 3.87457e-05C52.4111 0.00738501 53.1029 0.994212 53.6815 2.27244C62.0798 20.8703 70.495 39.4584 78.903 58.049C82.4368 65.8628 85.9683 73.6766 89.4901 81.4953C89.9626 82.5458 90.1289 83.1776 89.8951 83.5425C89.5793 84.0346 88.7693 84.0102 87.8919 83.993C86.8071 83.9734 85.1873 83.9563 83.0708 83.9906C81.5883 83.9612 80.0769 83.9906 78.5944 83.9612Z" fill="#022B54"/>
</svg>
