<svg width="30" height="30" viewBox="0 0 30 30" fill="none" xmlns="http://www.w3.org/2000/svg">
<path d="M12.5 18V10.5C12.5 9.39543 11.6046 8.5 10.5 8.5H10.2647C9.29009 8.5 8.5 9.29009 8.5 10.2647V10.2647" stroke="#022B54"/>
<path d="M18.5 19V10.5C18.5 9.39543 17.6046 8.5 16.5 8.5H16.3947C15.3483 8.5 14.5 9.3483 14.5 10.3947V10.3947" stroke="#022B54"/>
<path d="M18.5 14.5H12.5" stroke="#022B54"/>
<path d="M22 18.5001C22 18.5001 20.7273 19.5008 18.1818 19.5C15.6364 19.4991 14.3636 17.5 11.8182 17.501C9.27273 17.5021 8 18.5001 8 18.5001" stroke="#022B54"/>
<path d="M22 20.5001C22 20.5001 20.7273 21.5008 18.1818 21.5C15.6364 21.4991 14.3636 19.5 11.8182 19.501C9.27273 19.5021 8 20.5001 8 20.5001" stroke="#022B54"/>
</svg>
