<svg width="24" height="24" viewBox="0 0 24 24" fill="none" xmlns="http://www.w3.org/2000/svg">
<path opacity="0.4" fill-rule="evenodd" clip-rule="evenodd" d="M4.05117 11.0012C4.05117 7.16279 7.16279 4.05117 11.0012 4.05117C14.8396 4.05117 17.9512 7.16279 17.9512 11.0012C17.9512 12.8761 17.2087 14.5777 16.0018 15.8278C15.9693 15.8534 15.938 15.8811 15.9081 15.9111C15.8783 15.9408 15.8507 15.972 15.8252 16.0043C14.5753 17.2097 12.8748 17.9512 11.0012 17.9512C7.16279 17.9512 4.05117 14.8396 4.05117 11.0012ZM16.6134 18.1013C15.0709 19.3222 13.1212 20.0512 11.0012 20.0512C6.00299 20.0512 1.95117 15.9993 1.95117 11.0012C1.95117 6.00299 6.00299 1.95117 11.0012 1.95117C15.9993 1.95117 20.0512 6.00299 20.0512 11.0012C20.0512 13.1227 19.3212 15.0737 18.0987 16.6167L21.743 20.2611C22.1531 20.6711 22.1531 21.3359 21.743 21.746C21.333 22.156 20.6682 22.156 20.2581 21.746L16.6134 18.1013Z" fill="#022B54"/>
</svg>
